<?xml version="1.0" standalone="no"?>
<!DOCTYPE svg PUBLIC "-//W3C//DTD SVG 20010904//EN"
 "http://www.w3.org/TR/2001/REC-SVG-20010904/DTD/svg10.dtd">
<svg version="1.0" xmlns="http://www.w3.org/2000/svg"
 width="980.000000pt" height="978.000000pt" viewBox="0 0 980.000000 978.000000"
 preserveAspectRatio="xMidYMid meet">

<g transform="translate(0.000000,978.000000) scale(0.100000,-0.100000)"
fill="currentColor" stroke="none">
<path d="M4350 9751 c-435 -58 -735 -131 -1119 -272 -825 -304 -1519 -799
-2104 -1502 -231 -277 -369 -483 -547 -817 -580 -1089 -729 -2305 -424 -3470
180 -689 539 -1385 993 -1925 107 -127 404 -428 547 -554 535 -471 1153 -814
1826 -1015 361 -108 705 -171 1023 -187 260 -14 745 -6 920 15 521 63 1040
218 1565 468 464 222 866 508 1273 907 499 490 828 966 1088 1573 213 497 331
939 386 1438 22 203 25 699 5 890 -82 788 -310 1463 -721 2140 -502 825 -1333
1548 -2225 1935 -262 113 -529 204 -796 269 -404 98 -616 122 -1180 131 -283
5 -304 4 -510 -24z m1020 -341 c181 -17 462 -66 652 -114 318 -80 569 -172
873 -320 975 -473 1762 -1297 2186 -2288 110 -258 254 -713 229 -728 -24 -15
-344 -20 -1256 -20 l-942 0 -47 87 c-153 288 -427 600 -720 820 -285 214 -664
383 -1003 447 -227 43 -684 40 -907 -5 -133 -28 -393 -114 -533 -178 -111 -50
-284 -145 -372 -204 -284 -191 -635 -576 -789 -867 l-52 -100 -1105 0 c-1045
0 -1104 1 -1104 18 0 32 49 206 95 342 185 539 441 1023 738 1393 195 244 454
508 689 704 381 318 834 579 1305 754 337 125 818 234 1178 268 126 12 732 6
885 -9z m-340 -2430 c529 -40 964 -232 1329 -585 185 -179 307 -350 421 -589
43 -90 79 -151 93 -161 13 -8 55 -23 93 -32 61 -14 203 -17 1244 -22 l1175 -6
14 -50 c21 -72 23 -1190 2 -1281 l-13 -61 -1132 -7 c-1065 -7 -1267 -12 -1342
-36 -46 -15 -80 -57 -114 -140 -64 -154 -176 -334 -303 -487 -275 -329 -677
-575 -1108 -678 -154 -36 -261 -47 -484 -47 -228 -1 -348 12 -513 52 -377 92
-690 267 -958 534 -166 166 -288 337 -424 594 -36 68 -76 137 -90 153 l-25 29
-530 10 c-291 5 -685 10 -875 10 -190 0 -510 3 -711 7 l-366 6 -11 61 c-24
132 -34 305 -34 626 0 329 11 526 35 645 l13 60 344 2 c616 3 2054 25 2104 32
l49 6 68 120 c197 350 270 456 428 618 253 261 565 445 926 545 251 70 447 90
695 72z m-2304 -3212 c16 -35 64 -115 106 -178 422 -633 1049 -1032 1778
-1131 140 -19 469 -17 610 5 472 72 891 260 1245 559 240 202 491 507 602 731
l37 76 1109 0 1109 0 -7 -42 c-45 -265 -272 -821 -503 -1228 -348 -615 -983
-1245 -1617 -1605 -205 -117 -548 -276 -755 -351 -317 -114 -726 -203 -1105
-239 -204 -20 -643 -23 -825 -6 -158 15 -374 45 -510 72 -1140 223 -2162 891
-2837 1852 -116 166 -193 298 -313 542 -190 383 -329 751 -365 963 l-7 42
1109 0 1109 0 30 -62z"/>
<path d="M4700 6620 c-280 -27 -604 -163 -859 -360 -336 -260 -558 -618 -653
-1051 -19 -90 -22 -133 -22 -324 0 -191 3 -234 22 -325 95 -437 345 -823 698
-1076 170 -121 424 -246 594 -292 89 -24 114 -26 375 -30 404 -6 483 11 790
163 213 106 327 187 480 340 144 143 254 301 350 499 136 283 150 351 150 726
0 238 -3 299 -18 370 -34 160 -152 417 -281 610 -100 152 -301 350 -461 457
-365 242 -733 335 -1165 293z m350 -350 c158 -12 264 -36 387 -85 182 -73 341
-182 481 -330 186 -196 314 -447 353 -690 17 -103 17 -466 1 -565 -17 -98 -63
-233 -118 -346 -159 -326 -457 -582 -809 -697 -134 -44 -204 -52 -445 -52
-242 0 -311 8 -445 52 -508 166 -871 601 -934 1118 -17 143 -14 357 8 487 79
460 407 858 846 1027 205 79 395 102 675 81z"/>
<path d="M4786 5930 c-139 -22 -320 -88 -418 -153 -124 -83 -299 -259 -367
-371 -43 -73 -86 -180 -118 -296 -38 -139 -38 -306 -1 -442 63 -226 117 -323
259 -473 155 -161 295 -252 477 -309 171 -53 345 -59 512 -16 104 26 265 102
357 166 185 131 336 334 409 550 75 224 70 410 -15 645 -86 233 -308 480 -536
593 -166 83 -411 129 -559 106z m359 -384 c109 -37 180 -83 257 -164 75 -80
119 -152 153 -253 113 -331 -21 -704 -304 -853 -114 -60 -206 -80 -356 -80
-122 0 -136 2 -230 35 -228 79 -380 238 -435 455 -28 107 -28 301 0 408 30
118 72 189 170 286 95 96 180 145 311 180 62 17 98 20 214 17 121 -3 151 -8
220 -31z"/>
</g>
</svg>
